# xmcd CD database file
#
# Track frame offsets:
#	150
#	21137
#	43632
#
# Disc length: 859 seconds
#
# Revision: 0
# Processed by: cddbd v1.5PL3 Copyright (c) Steve Scherf et al.
# Submitted via: CDex 1.50
#
DISCID=1b035903
DTITLE=織田哲郎 - いつまでも変わらぬ愛を
DYEAR=1992
DGENRE=Jpop
TTITLE0=いつまでも変わらぬ愛を
TTITLE1=Why Did You Go Away
TTITLE2=いつまでも変わらぬ愛を -カラオケ-
EXTD=YEAR: 1992
EXTT0=
EXTT1=
EXTT2=
PLAYORDER=
